<svg xmlns="http://www.w3.org/2000/svg" viewBox="0 0 189.27 54.23"><defs><style>.cls-1{fill:#fff;}</style></defs><g id="Camada_2" data-name="Camada 2"><g id="Camada_1-2" data-name="Camada 1"><path class="cls-1" d="M69.23,9.59h0A3.06,3.06,0,0,1,72,11.45l9.4,22.06,9.21-22a3.06,3.06,0,0,1,2.82-1.88h0a3.05,3.05,0,0,1,3,3.06V43.59a2.68,2.68,0,0,1-2.69,2.69h0a2.69,2.69,0,0,1-2.69-2.69V23.4H91L84.46,39A3.38,3.38,0,0,1,81.34,41h0A3.38,3.38,0,0,1,78.22,39L71.66,23.4h-.1V43.59a2.68,2.68,0,0,1-2.69,2.69h0a2.68,2.68,0,0,1-2.69-2.69V12.65A3.06,3.06,0,0,1,69.23,9.59Z"/><path class="cls-1" d="M108.44,9.59h17a2.47,2.47,0,0,1,2.47,2.47v.3a2.46,2.46,0,0,1-2.47,2.46H110.62v10.5h12.32a2.46,2.46,0,0,1,2.46,2.47h0a2.46,2.46,0,0,1-2.46,2.46H110.62v10.8h14.85a2.46,2.46,0,0,1,2.47,2.46v.31a2.46,2.46,0,0,1-2.47,2.46h-17a3.2,3.2,0,0,1-3.2-3.2V12.8A3.21,3.21,0,0,1,108.44,9.59Z"/><path class="cls-1" d="M133.9,11.87a2.28,2.28,0,0,1,2.28-2.28h10.15a11.89,11.89,0,0,1,10.83,6.19,11.35,11.35,0,0,1,1.63,4.33,76.54,76.54,0,0,1,.27,7.83,56,56,0,0,1-.41,8.25,9.76,9.76,0,0,1-.59,2.11,19.41,19.41,0,0,1-1,1.89,12.53,12.53,0,0,1-4.34,4.28A12,12,0,0,1,146,46.28h-9.79A2.28,2.28,0,0,1,133.9,44Zm5.38,29.18h6.44q4.54,0,6.59-3.2a6.22,6.22,0,0,0,1.15-3,65.24,65.24,0,0,0,.22-6.71q0-4.79-.22-6.86a6.44,6.44,0,0,0-1.39-3.35,7.08,7.08,0,0,0-6.35-3.11h-6.44Z"/><path class="cls-1" d="M186.32,36a2.85,2.85,0,0,1,2.47,4.23,12.21,12.21,0,0,1-2.92,3.61,12.43,12.43,0,0,1-8,2.71A12.76,12.76,0,0,1,166.71,40c-.26-.55-.49-1.08-.7-1.58a10.26,10.26,0,0,1-.49-2,61.9,61.9,0,0,1-.37-8.5,63.67,63.67,0,0,1,.37-8.56,10.53,10.53,0,0,1,1.19-3.5,12.61,12.61,0,0,1,4.15-4.53,12.83,12.83,0,0,1,15.38,1.08A13.9,13.9,0,0,1,189,16a2.8,2.8,0,0,1-2.47,4.1h0A2.88,2.88,0,0,1,184,18.57a8.17,8.17,0,0,0-1.74-2.21,7,7,0,0,0-4.4-1.54,7.44,7.44,0,0,0-3.27.78,6.86,6.86,0,0,0-2.24,1.9,6.17,6.17,0,0,0-1.4,3.05,45.36,45.36,0,0,0-.39,7.39,44.45,44.45,0,0,0,.39,7.34,6.26,6.26,0,0,0,1.4,3.1,6.47,6.47,0,0,0,2.24,1.84,6.27,6.27,0,0,0,3.28.83,6.83,6.83,0,0,0,6.1-3.68A2.75,2.75,0,0,1,186.32,36Z"/><path class="cls-1" d="M48.38,54.18c-7.55.63-19.79-4.88-31.59-14.84a.75.75,0,0,1,1-1.14C32.19,50.39,48.28,56.1,52.88,50.66a.72.72,0,0,1,1-.09.74.74,0,0,1,.09,1A8,8,0,0,1,48.38,54.18Z"/><path class="cls-1" d="M37,16.2a.76.76,0,0,1-.55-.18C29.27,9.94,21.59,5.32,14.85,3,8.42.81,3.49,1,1.35,3.56a.74.74,0,0,1-1,.09.74.74,0,0,1-.09-1c2.6-3.08,8-3.44,15.12-1C22.25,4,30.1,8.69,37.44,14.89a.74.74,0,0,1,.08,1A.77.77,0,0,1,37,16.2Z"/><path class="cls-1" d="M38.83,37.7a.73.73,0,0,1-.54-.18.74.74,0,0,1-.09-1.05C50.4,22,56.1,5.94,50.66,1.35a.74.74,0,0,1-.09-1,.74.74,0,0,1,1-.09c3.08,2.61,3.44,8,1,15.12-2.37,6.92-7.09,14.77-13.29,22.11A.77.77,0,0,1,38.83,37.7Z"/><path class="cls-1" d="M3.15,54.19A.76.76,0,0,1,2.6,54c-3.08-2.6-3.44-8-1-15.12C4,32,8.69,24.12,14.89,16.79a.74.74,0,0,1,1-.09A.74.74,0,0,1,16,17.75C9.94,25,5.32,32.63,3,39.38c-2.2,6.42-2,11.34.54,13.5a.74.74,0,0,1,.09,1A.77.77,0,0,1,3.15,54.19Z"/><path class="cls-1" d="M11.21,53.92a7.38,7.38,0,0,1-5.52-1.44C.71,48.27,3,35.31,17.1,18.65S43.56-2.46,48.53,1.75s2.66,17.16-11.41,33.82C26.85,47.73,17.46,53.39,11.21,53.92ZM43.38,4.69A17.46,17.46,0,0,0,36.5,7.35c-5.13,3-10.81,8.05-16,14.19C9.19,34.94,5.88,46.79,8.57,49.06s13.82-3,25.14-16.38c5.18-6.13,9.2-12.57,11.32-18.13s1.65-8.52.62-9.39A3.11,3.11,0,0,0,43.38,4.69Z"/><path class="cls-1" d="M47.34,29.14c-.84,1.27-1.77,2.57-2.76,3.9.85,1.17,1.63,2.33,2.29,3.46,3,5.11,3.06,8.12,2.19,9.15s-3.85,1.48-9.39-.63-12-6.13-18.13-11.31C8.14,22.39,2.89,11.26,5.16,8.57a3,3,0,0,1,2.12-.86c4.48-.38,14.42,3.52,25.4,12.8,1.81,1.52,3.5,3.09,5.09,4.67q1.33-2,2.47-3.86c-1.44-1.39-3-2.8-4.67-4.22C18.91,3,6,.71,1.75,5.69S2,23.06,18.65,37.12C30.82,47.4,41,51.41,47.27,50.88a7.39,7.39,0,0,0,5.21-2.35C55.42,45.05,54.1,37.92,47.34,29.14Z"/></g></g></svg>